<svg height="500" viewBox="0 0 132.29165 132.29166" width="500" xmlns="http://www.w3.org/2000/svg"><g transform="translate(-72.828091 -6.801294)"><path d="m142.23443 8.3691844s-7.37874.900613-16.81219 13.3439296c-13.47824 17.778641-30.278118 50.513941-28.305986 73.439983 2.226599 25.884213 16.838556 36.302133 29.348246 40.216443 6.32526 1.97921 12.11306 2.29567 15.49056 2.10803 10.0573-.55874 41.92451-10.16648 38.83236-45.257843-1.74817-19.839036-16.98864-33.08924-26.39078-44.054881-13.55731-15.811775-12.16221-39.7956616-12.16221-39.7956616z" fill="#ff6b00" stroke="#000" stroke-linecap="round" stroke-linejoin="round" stroke-width="3.135817"/><g fill="#fff"><path d="m103.88047 81.628498c1.19199-2.824907-.0829 9.992159 3.98041 19.326862 3.5363 8.12402 8.13888 15.26263 20.4102 20.03923 12.27131 4.7766 36.27322-1.87621 36.27322-1.87621.59541 2.22211-16.68215 15.87697-37.87581 8.91195-18.25443-5.99908-25.91147-27.82986-22.78802-46.401832z"/><path d="m154.01018 74.884496c1.34409 3.88866 9.74338 1.245546 10.39927-1.612922.48734-2.123862-21.11426-27.79223-21.23292-24.825945-.17262 7.478885 7.74841 17.943033 10.83365 26.438867z"/></g></g></svg>